<svg xmlns="http://www.w3.org/2000/svg" viewBox="0 0 32 32">
  <!-- E -->
  <path d="M4 7h9v2.5H7v3.5h5v2.5H7v4h6.5V22H4z" fill="#000"/>
  <!-- G -->
  <path d="M17.5 7.8C18.8 7.3 20.2 7 21.5 7c1.5 0 2.8.3 3.8.9 1 .6 1.7 1.5 1.7 2.6h-3c-.1-.5-.4-.8-.8-1-.4-.3-1-.4-1.7-.4-1.2 0-2.2.5-2.9 1.4-.7.9-1.1 2.2-1.1 3.8 0 1.7.4 3 1.1 3.9.7.9 1.7 1.3 2.9 1.3.9 0 1.6-.2 2.1-.6.5-.4.8-1 .9-1.7H22v-2.5h6V22h-2.2l-.3-1.5c-.5.6-1.1 1-1.8 1.3-.7.3-1.5.4-2.4.4-1.8 0-3.3-.7-4.5-2-1.2-1.3-1.8-3.1-1.8-5.4 0-2.2.6-4 1.8-5.3.8-.8 1.7-1.4 2.7-1.7z" fill="#000"/>
</svg>
